<svg xmlns="http://www.w3.org/2000/svg" width="20" height="20" viewBox="0 0 20 20">
    <g fill="none" fill-rule="evenodd">
        <path d="M0 0L20 0 20 20 0 20z"/>
        <path fill="#353D45" fill-rule="nonzero" d="M13.333 10h-2.5c-.458 0-.833.375-.833.833v2.5c0 .459.375.834.833.834h2.5c.459 0 .834-.375.834-.834v-2.5c0-.458-.375-.833-.834-.833zm0-8.333V2.5H6.667v-.833c0-.459-.375-.834-.834-.834-.458 0-.833.375-.833.834V2.5h-.833c-.925 0-1.659.75-1.659 1.667L2.5 15.833c0 .917.742 1.667 1.667 1.667h11.666c.917 0 1.667-.75 1.667-1.667V4.167c0-.917-.75-1.667-1.667-1.667H15v-.833c0-.459-.375-.834-.833-.834-.459 0-.834.375-.834.834zM15 15.833H5c-.458 0-.833-.375-.833-.833V6.667h11.666V15c0 .458-.375.833-.833.833z"/>
    </g>
</svg>
