<svg xmlns="http://www.w3.org/2000/svg" width="20" height="20" viewBox="0 0 20 20">
    <g fill="none" fill-rule="evenodd">
        <path d="M0 0L20 0 20 20 0 20z"/>
        <path d="M0 0L20 0 20 20 0 20z" opacity=".87"/>
        <path fill="#59636D" fill-rule="nonzero" d="M10 2.5c-4.147 0-7.5 3.353-7.5 7.5 0 4.148 3.353 7.5 7.5 7.5 4.148 0 7.5-3.352 7.5-7.5 0-4.147-3.352-7.5-7.5-7.5zm3.225 10.725c-.293.293-.765.293-1.057 0L10 11.057l-2.168 2.168c-.292.293-.764.293-1.057 0-.293-.293-.293-.765 0-1.057L8.943 10 6.775 7.832c-.293-.292-.293-.764 0-1.057.292-.293.765-.293 1.057 0L10 8.943l2.168-2.168c.292-.293.764-.293 1.057 0 .293.292.293.765 0 1.057L11.057 10l2.168 2.168c.285.285.285.764 0 1.057z"/>
    </g>
</svg>
