<svg xmlns="http://www.w3.org/2000/svg" width="24" height="24" viewBox="0 0 24 24">
    <g fill="none" fill-rule="evenodd">
        <path d="M0 0L24 0 24 24 0 24z"/>
        <path fill="#353D45" fill-rule="nonzero" d="M16.243 17.657L12 13.414l-4.243 4.243c-.39.39-1.023.39-1.414 0-.39-.39-.39-1.024 0-1.414L10.586 12 6.343 7.757c-.39-.39-.39-1.023 0-1.414.39-.39 1.024-.39 1.414 0L12 10.586l4.243-4.243c.39-.39 1.023-.39 1.414 0 .39.39.39 1.024 0 1.414L13.414 12l4.243 4.243c.39.39.39 1.023 0 1.414-.39.39-1.024.39-1.414 0z"/>
    </g>
</svg>
