<svg xmlns="http://www.w3.org/2000/svg" width="20" height="20" viewBox="0 0 20 20">
    <g fill="none" fill-rule="evenodd">
        <path d="M0 0L20 0 20 20 0 20z"/>
        <path fill="#59636D" fill-rule="nonzero" d="M5 15.833c0 .917.75 1.667 1.667 1.667h6.666c.917 0 1.667-.75 1.667-1.667V7.5c0-.917-.75-1.667-1.667-1.667H6.667C5.75 5.833 5 6.583 5 7.5v8.333zm10-12.5h-2.083l-.592-.591c-.15-.15-.367-.242-.583-.242H8.258c-.216 0-.433.092-.583.242l-.592.591H5c-.458 0-.833.375-.833.834 0 .458.375.833.833.833h10c.458 0 .833-.375.833-.833 0-.459-.375-.834-.833-.834z"/>
    </g>
</svg>
