<svg xmlns="http://www.w3.org/2000/svg" width="28" height="28" viewBox="0 0 28 28">
    <g fill="none" fill-rule="evenodd">
        <path d="M0 0L28 0 28 28 0 28z"/>
        <path d="M0 0L28 0 28 28 0 28z" opacity=".87"/>
        <path fill="#FF3B3B" fill-rule="nonzero" d="M14 3.5C8.194 3.5 3.5 8.194 3.5 14S8.194 24.5 14 24.5 24.5 19.806 24.5 14 19.806 3.5 14 3.5zm4.515 15.015c-.41.41-1.071.41-1.48 0L14 15.48l-3.034 3.035c-.41.41-1.071.41-1.481 0-.41-.41-.41-1.071 0-1.48L12.52 14l-3.035-3.034c-.41-.41-.41-1.071 0-1.481.41-.41 1.071-.41 1.48 0L14 12.52l3.035-3.035c.409-.41 1.07-.41 1.48 0 .41.41.41 1.071 0 1.48L15.48 14l3.035 3.035c.399.398.399 1.07 0 1.48z"/>
    </g>
</svg>
