<svg xmlns="http://www.w3.org/2000/svg" width="20" height="20" viewBox="0 0 20 20">
    <g fill="none" fill-rule="evenodd">
        <path d="M0 0H20V20H0z"/>
        <path d="M0 0H20V20H0z"/>
        <g fill="#353D45" fill-rule="nonzero">
            <path d="M13.058 7.608c2.3.334 5.275 1.409 5.275 3.225V12.5c0 .458-.375.833-.833.833H15v-2.5c0-1.4-.8-2.45-1.942-3.225zM6.667 7.5c2.225 0 6.666 1.117 6.666 3.333V12.5c0 .458-.375.833-.833.833H.833c-.458 0-.833-.375-.833-.833v-1.667C0 8.617 4.442 7.5 6.667 7.5zm0-7.5C8.507 0 10 1.492 10 3.333c0 1.841-1.492 3.334-3.333 3.334-1.841 0-3.334-1.493-3.334-3.334C3.333 1.493 4.826 0 6.667 0zm5 0C13.508 0 15 1.492 15 3.333c0 1.842-1.492 3.334-3.333 3.334-.392 0-.759-.084-1.109-.2.692-.859 1.109-1.95 1.109-3.134 0-1.183-.417-2.275-1.109-3.133.35-.117.717-.2 1.109-.2z" transform="translate(.833 3.333)"/>
        </g>
    </g>
</svg>
