<svg xmlns="http://www.w3.org/2000/svg" width="20" height="20" viewBox="0 0 20 20">
    <g fill="none" fill-rule="evenodd">
        <path d="M0 0L20 0 20 20 0 20z"/>
        <path fill="#353D45" fill-rule="nonzero" d="M15.83 4.007l.087.076c.333.334.333.834 0 1.167L5.25 15.917c-.23.305-.738.33-1.078.076l-.089-.076c-.333-.334-.333-.834 0-1.167L14.75 4.083c.306-.305.751-.33 1.08-.076zm-1.997 8.16c.92 0 1.667.746 1.667 1.666 0 .92-.746 1.667-1.667 1.667-.92 0-1.666-.746-1.666-1.667 0-.92.746-1.666 1.666-1.666zM6.167 4.5c.92 0 1.666.746 1.666 1.667 0 .92-.746 1.666-1.666 1.666-.92 0-1.667-.746-1.667-1.666 0-.92.746-1.667 1.667-1.667z"/>
    </g>
</svg>
