<svg xmlns="http://www.w3.org/2000/svg" width="20" height="20" viewBox="0 0 20 20">
    <g fill="none" fill-rule="evenodd">
        <path d="M0 0L20 0 20 20 0 20z"/>
        <path fill="#353D45" fill-rule="nonzero" d="M16.667 15.833h-.834V4.167c0-.459-.375-.834-.833-.834h-3.333c0-.458-.375-.833-.834-.833H5c-.458 0-.833.375-.833.833v12.5h-.834c-.458 0-.833.375-.833.834 0 .458.375.833.833.833h7.5c.459 0 .834-.375.834-.833V5h2.5v11.667c0 .458.375.833.833.833h1.667c.458 0 .833-.375.833-.833 0-.459-.375-.834-.833-.834zm-6.667-5H8.333V9.167H10v1.666z"/>
    </g>
</svg>
