<svg xmlns="http://www.w3.org/2000/svg" width="20" height="20" viewBox="0 0 20 20">
    <g fill="none" fill-rule="evenodd">
        <path d="M0 0H20V20H0z"/>
        <path fill="#353D45" fill-rule="nonzero" d="M2.5 10l.104.007c.41.051.73.403.73.826v5H10c.458 0 .833.375.833.834l-.006.104c-.052.41-.404.729-.827.729H3.333c-.916 0-1.666-.75-1.666-1.667v-5c0-.458.375-.833.833-.833zm3.333-3.333l.104.006c.41.052.73.404.73.827v5h6.666c.459 0 .834.375.834.833l-.007.104c-.052.41-.404.73-.827.73H6.667C5.75 14.167 5 13.417 5 12.5v-5c0-.458.375-.833.833-.833zM16.667 2.5c.916 0 1.666.75 1.666 1.667v5c0 .916-.75 1.666-1.666 1.666H10c-.917 0-1.667-.75-1.667-1.666v-5c0-.917.75-1.667 1.667-1.667zm0 3.333H10V8.75c0 .233.183.417.417.417h5.833c.233 0 .417-.184.417-.417V5.833z"/>
    </g>
</svg>
