<svg xmlns="http://www.w3.org/2000/svg" width="24" height="24" viewBox="0 0 24 24">
    <g fill="none" fill-rule="evenodd">
        <path d="M0 0H24V24H0z"/>
        <path fill="#59636D" fill-rule="nonzero" d="M3 12l.116.007c.496.058.884.482.884.993v6h8c.55 0 1 .45 1 1l-.007.116c-.058.496-.482.884-.993.884H4c-1.1 0-2-.9-2-2v-6c0-.55.45-1 1-1zm4-4l.116.007C7.612 8.065 8 8.489 8 9v6h8c.55 0 1 .45 1 1l-.007.116c-.058.496-.482.884-.993.884H8c-1.1 0-2-.9-2-2V9c0-.55.45-1 1-1zm13-5c1.1 0 2 .9 2 2v6c0 1.1-.9 2-2 2h-8c-1.1 0-2-.9-2-2V5c0-1.1.9-2 2-2zm0 4h-8v3.5c0 .28.22.5.5.5h7c.28 0 .5-.22.5-.5V7z"/>
    </g>
</svg>
