<svg xmlns="http://www.w3.org/2000/svg" width="28" height="28" viewBox="0 0 28 28">
    <g fill="none" fill-rule="evenodd">
        <path d="M0 0L28 0 28 28 0 28z"/>
        <path fill="#06C270" fill-rule="nonzero" d="M14 3.5C8.204 3.5 3.5 8.204 3.5 14S8.204 24.5 14 24.5 24.5 19.796 24.5 14 19.796 3.5 14 3.5zm-2.845 15.005l-3.77-3.77c-.41-.41-.41-1.071 0-1.48.41-.41 1.071-.41 1.48 0l3.035 3.024 7.224-7.224c.41-.41 1.071-.41 1.48 0 .41.409.41 1.07 0 1.48l-7.969 7.97c-.399.409-1.071.409-1.48 0z"/>
    </g>
</svg>
