<svg xmlns="http://www.w3.org/2000/svg" width="20" height="20" viewBox="0 0 20 20">
    <g fill="none" fill-rule="evenodd">
        <path d="M0 0L20 0 20 20 0 20z"/>
        <path fill="#353D45" fill-rule="nonzero" d="M9.992 1.667c-4.6 0-8.325 3.733-8.325 8.333s3.725 8.333 8.325 8.333c4.608 0 8.341-3.733 8.341-8.333S14.6 1.667 9.992 1.667zm.008 15c-3.683 0-6.667-2.984-6.667-6.667S6.317 3.333 10 3.333 16.667 6.317 16.667 10 13.683 16.667 10 16.667zM9.817 5.833h-.05c-.334 0-.6.267-.6.6v3.934c0 .291.15.566.408.716l3.458 2.075c.284.167.65.084.817-.2.175-.283.083-.658-.208-.825l-3.225-1.916V6.433c0-.333-.267-.6-.6-.6z"/>
    </g>
</svg>
