<svg xmlns="http://www.w3.org/2000/svg" width="28" height="28" viewBox="0 0 28 28">
    <g fill="none" fill-rule="evenodd">
        <path d="M0 0L28 0 28 28 0 28z"/>
        <path fill="#FC0" fill-rule="nonzero" d="M4.783 24.5h18.434c1.885 0 3.06-2.062 2.118-3.704L16.118 4.732c-.943-1.643-3.293-1.643-4.236 0L2.665 20.796c-.942 1.642.233 3.704 2.118 3.704zM14 15.857c-.673 0-1.224-.556-1.224-1.235v-2.47c0-.679.55-1.234 1.224-1.234.673 0 1.224.555 1.224 1.235v2.469c0 .68-.55 1.235-1.224 1.235zm1.224 4.939h-2.448v-2.47h2.448v2.47z"/>
    </g>
</svg>
